{
  "asset": {
    "generator": "Khronos glTF Blender I/O v1.7.33",
    "version": "2.0"
  },
  "scene": 0,
  "scenes": [
    {
      "name": "Scene",
      "nodes": [
        0
      ]
    }
  ],
  "nodes": [
    {
      "mesh": 0,
      "name": "Statue_Statue_0"
    }
  ],
  "materials": [
    {
      "name": "Statue",
      "pbrMetallicRoughness": {
        "baseColorFactor": [
          0.5,
          0.5,
          0.5,
          1
        ],
        "metallicFactor": 0,
        "roughnessFactor": 0.8643125295639038
      }
    }
  ],
  "meshes": [
    {
      "name": "Statue_Statue_0",
      "primitives": [
        {
          "attributes": {
            "POSITION": 0,
            "NORMAL": 1,
            "COLOR_0": 2
          },
          "indices": 3,
          "material": 0
        }
      ]
    }
  ],
  "accessors": [
    {
      "bufferView": 0,
      "componentType": 5126,
      "count": 185207,
      "max": [
        0.5330861806869507,
        1.501463532447815,
        0.33536186814308167
      ],
      "min": [
        -0.5330855250358582,
        0.00048748566769063473,
        -0.3292979598045349
      ],
      "type": "VEC3"
    },
    {
      "bufferView": 1,
      "componentType": 5126,
      "count": 185207,
      "type": "VEC3"
    },
    {
      "bufferView": 2,
      "componentType": 5123,
      "count": 185207,
      "normalized": true,
      "type": "VEC4"
    },
    {
      "bufferView": 3,
      "componentType": 5125,
      "count": 903612,
      "type": "SCALAR"
    }
  ],
  "bufferViews": [
    {
      "buffer": 0,
      "byteLength": 2222484,
      "byteOffset": 0
    },
    {
      "buffer": 0,
      "byteLength": 2222484,
      "byteOffset": 2222484
    },
    {
      "buffer": 0,
      "byteLength": 1481656,
      "byteOffset": 4444968
    },
    {
      "buffer": 0,
      "byteLength": 3614448,
      "byteOffset": 5926624
    }
  ],
  "buffers": [
    {
      "uri": "GoddessFigure_data.bin",
      "byteLength": 9541072
    }
  ]
}